<svg xmlns="http://www.w3.org/2000/svg" xmlns:xlink="http://www.w3.org/1999/xlink" width="500" zoomAndPan="magnify" viewBox="0 0 375 374.999991" height="500" preserveAspectRatio="xMidYMid meet" version="1.0"><defs><g/><clipPath id="379fa5d17b"><path d="M 0 0 L 373 0 L 373 373 L 0 373 Z M 0 0 " clip-rule="nonzero"/></clipPath><clipPath id="bf89c1b00a"><path d="M 39.183594 -42.589844 L 409.023438 39.183594 L 327.25 409.023438 L -42.589844 327.25 Z M 39.183594 -42.589844 " clip-rule="nonzero"/></clipPath><clipPath id="b18e8435cd"><path d="M 224.101562 -1.703125 C 121.972656 -24.285156 20.875 40.203125 -1.703125 142.332031 C -24.285156 244.460938 40.203125 345.558594 142.332031 368.136719 C 244.460938 390.71875 345.558594 326.230469 368.136719 224.101562 C 390.71875 121.972656 326.230469 20.875 224.101562 -1.703125 " clip-rule="nonzero"/></clipPath><clipPath id="a2859cd6b7"><path d="M 6 2 L 361 2 L 361 364 L 6 364 Z M 6 2 " clip-rule="nonzero"/></clipPath><clipPath id="2deba83b08"><path d="M 367.292969 357.539062 L 12.023438 370.3125 L -0.964844 9.046875 L 354.304688 -3.726562 Z M 367.292969 357.539062 " clip-rule="nonzero"/></clipPath><clipPath id="17255fbcf3"><path d="M 367.292969 357.539062 L 12.023438 370.3125 L -0.964844 9.046875 L 354.304688 -3.726562 Z M 367.292969 357.539062 " clip-rule="nonzero"/></clipPath><clipPath id="9745506d21"><path d="M 15 15 L 351 15 L 351 351 L 15 351 Z M 15 15 " clip-rule="nonzero"/></clipPath><clipPath id="50ef8df666"><path d="M -2.773438 329.582031 L 36.847656 -2.78125 L 369.210938 36.839844 L 329.589844 369.203125 Z M -2.773438 329.582031 " clip-rule="nonzero"/></clipPath><clipPath id="27715338f6"><path d="M 17.035156 163.402344 C 6.09375 255.179688 71.628906 338.453125 163.40625 349.394531 C 255.1875 360.335938 338.457031 294.800781 349.398438 203.023438 C 360.339844 111.242188 294.808594 27.972656 203.027344 17.03125 C 111.246094 6.089844 27.976562 71.621094 17.035156 163.402344 " clip-rule="nonzero"/></clipPath><clipPath id="ecfb404f6e"><path d="M 93 22.585938 L 237 22.585938 L 237 129.835938 L 93 129.835938 Z M 93 22.585938 " clip-rule="nonzero"/></clipPath></defs><g clip-path="url(#379fa5d17b)"><g clip-path="url(#bf89c1b00a)"><g clip-path="url(#b18e8435cd)"><path fill="#fdf9f7" d="M 39.183594 -42.589844 L 409.023438 39.183594 L 327.25 409.023438 L -42.589844 327.25 Z M 39.183594 -42.589844 " fill-opacity="1" fill-rule="nonzero"/></g></g></g><g clip-path="url(#a2859cd6b7)"><g clip-path="url(#2deba83b08)"><g clip-path="url(#17255fbcf3)"><path fill="#0b0019" d="M 360.074219 169.558594 C 361.613281 199.863281 355.128906 228.566406 342.421875 255.929688 C 335.601562 270.601562 326.824219 284.070312 316.4375 296.550781 C 300.386719 315.835938 281.324219 331.332031 259.164062 343.023438 C 243.132812 351.476562 226.179688 357.503906 208.332031 360.582031 C 198.402344 362.292969 188.332031 363.96875 178.191406 363.433594 C 171.34375 363.070312 164.484375 362.949219 157.625 362.339844 C 138.484375 360.644531 120.546875 355.175781 103.269531 347.164062 C 90.445312 341.21875 78.773438 333.441406 67.816406 324.519531 C 60.585938 318.628906 54.128906 312 48.046875 304.972656 C 46.359375 303.023438 46.15625 300.667969 47.707031 299.441406 C 49.671875 297.886719 51.539062 298.355469 53.179688 300.105469 C 56.511719 303.660156 59.761719 307.28125 63.265625 310.683594 C 82.90625 329.785156 105.917969 343 132.300781 350.347656 C 142.609375 353.214844 153.070312 355.074219 163.792969 355.757812 C 169.390625 356.113281 175.015625 356.511719 180.59375 356.503906 C 186.554688 356.5 192.542969 355.660156 198.480469 354.875 C 210.011719 353.359375 221.324219 350.75 232.292969 346.863281 C 250.917969 340.257812 268.054688 330.972656 283.566406 318.628906 C 292.550781 311.480469 300.984375 303.78125 308.464844 295.101562 C 322.230469 279.144531 333.011719 261.347656 340.71875 241.714844 C 345.324219 229.984375 348.644531 217.914062 350.742188 205.488281 C 351.589844 200.46875 352.007812 195.414062 352.601562 190.371094 C 354.097656 177.65625 353.761719 164.90625 351.867188 152.382812 C 349.21875 134.886719 344.324219 117.910156 336.5 101.878906 C 330.378906 89.335938 322.949219 77.660156 313.929688 67.027344 C 303.3125 54.519531 291.105469 43.839844 277.167969 35.074219 C 259.082031 23.6875 239.585938 16.152344 218.539062 12.453125 C 204.574219 9.996094 190.503906 8.996094 176.429688 10.347656 C 150.839844 12.816406 126.679688 20.199219 104.375 33.152344 C 89.875 41.578125 76.8125 51.808594 65.0625 63.84375 C 48.511719 80.792969 35.957031 100.25 26.867188 122.011719 C 20.253906 137.84375 16.101562 154.367188 14.34375 171.417969 C 13.515625 179.480469 13.070312 187.625 13.421875 195.75 C 14.25 215.035156 17.609375 233.832031 24.679688 251.882812 C 25.125 253.015625 25.648438 254.140625 25.925781 255.3125 C 26.292969 256.851562 26.15625 258.59375 24.417969 259.019531 C 22.808594 259.414062 20.753906 260.472656 19.535156 257.984375 C 17.628906 254.089844 16.179688 250.019531 14.898438 245.917969 C 11.691406 235.660156 9.015625 225.261719 7.820312 214.539062 C 6.570312 203.296875 5.671875 191.964844 6.351562 180.707031 C 8.34375 147.363281 18.246094 116.441406 36.355469 88.265625 C 43.835938 76.636719 52.464844 65.863281 62.34375 56.203125 C 80.441406 38.519531 101.128906 24.695312 124.769531 15.378906 C 136.058594 10.933594 147.664062 7.644531 159.550781 5.386719 C 172.042969 3.007812 184.761719 2.359375 197.378906 2.832031 C 219.773438 3.664062 241.300781 8.914062 261.679688 18.367188 C 275.089844 24.585938 287.488281 32.449219 298.820312 41.984375 C 326.515625 65.296875 344.757812 94.605469 354.320312 129.371094 C 356.125 135.941406 357.324219 142.691406 358.570312 149.398438 C 359.78125 156.046875 359.773438 162.816406 360.074219 169.558594 Z M 360.074219 169.558594 " fill-opacity="1" fill-rule="nonzero"/></g></g></g><g clip-path="url(#9745506d21)"><g clip-path="url(#50ef8df666)"><g clip-path="url(#27715338f6)"><path fill="#ffcc00" d="M -2.773438 329.582031 L 36.847656 -2.78125 L 369.210938 36.839844 L 329.589844 369.203125 Z M -2.773438 329.582031 " fill-opacity="1" fill-rule="nonzero"/></g></g></g><path fill="#000000" d="M 232.777344 59.910156 C 232.9375 62.039062 232.96875 63.363281 232.8125 63.378906 C 232.667969 63.398438 232.355469 62.109375 231.996094 60.007812 C 231.621094 57.90625 231.222656 55 230.535156 51.859375 C 230.179688 50.292969 229.769531 48.828125 229.335938 47.515625 C 228.875 46.207031 228.417969 45.054688 227.949219 44.109375 C 227.039062 42.25 226.253906 41.144531 226.410156 41.046875 C 226.515625 40.972656 227.492188 41.859375 228.648438 43.730469 C 229.226562 44.652344 229.785156 45.824219 230.308594 47.160156 C 230.816406 48.5 231.273438 50.011719 231.636719 51.621094 C 232.332031 54.832031 232.609375 57.785156 232.777344 59.910156 " fill-opacity="1" fill-rule="nonzero"/><path fill="#000000" d="M 225.03125 77.113281 C 229.109375 75.789062 231.0625 70.75 229.449219 66.8125 C 227.90625 63.078125 223.746094 61.769531 220.003906 62.828125 C 216.351562 63.863281 212.679688 67.097656 214.351562 71.328125 C 215.984375 75.457031 220.695312 78.035156 225.03125 77.113281 Z M 231.589844 66.957031 C 232.730469 71.875 230.757812 77.171875 225.839844 78.929688 C 225.757812 78.980469 225.667969 79.015625 225.554688 79.035156 C 225.449219 79.078125 225.351562 79.082031 225.257812 79.09375 C 220.0625 80.015625 213.214844 76.777344 212.222656 71.136719 C 211.300781 65.90625 215.015625 61.566406 220.15625 60.746094 C 224.921875 59.988281 230.355469 61.695312 231.589844 66.957031 " fill-opacity="1" fill-rule="nonzero"/><path fill="#000000" d="M 229.570312 79.21875 C 229.726562 79.277344 229.417969 80.390625 228.9375 82.183594 C 228.453125 83.976562 227.816406 86.476562 226.84375 89.183594 C 226.339844 90.539062 225.777344 91.804688 225.179688 92.914062 C 224.558594 94.003906 223.921875 94.957031 223.285156 95.683594 C 222.011719 97.152344 221.007812 97.726562 220.917969 97.632812 C 220.785156 97.511719 221.644531 96.671875 222.65625 95.191406 C 223.179688 94.453125 223.714844 93.503906 224.261719 92.429688 C 224.78125 91.347656 225.304688 90.121094 225.789062 88.796875 C 226.742188 86.152344 227.492188 83.683594 228.1875 81.9375 C 228.859375 80.183594 229.429688 79.15625 229.570312 79.21875 " fill-opacity="1" fill-rule="nonzero"/><g clip-path="url(#ecfb404f6e)"><path fill="#000000" d="M 104.203125 125.875 C 103.625 124.210938 103.082031 122.539062 102.492188 120.875 C 100.128906 119.96875 97.921875 118.65625 95.417969 118.246094 C 95.972656 120.042969 96.734375 121.785156 97.496094 123.503906 C 99.671875 123.765625 101.949219 124.941406 104.203125 125.875 Z M 112.097656 126.109375 C 112.503906 125.839844 112.890625 125.546875 113.265625 125.230469 C 112.503906 123.523438 110.777344 122.449219 109.847656 120.851562 C 108.65625 121.492188 107.355469 121.863281 105.960938 121.742188 C 105.175781 121.679688 104.425781 121.519531 103.691406 121.292969 C 104.28125 122.976562 104.824219 124.671875 105.421875 126.351562 C 107.730469 127.179688 109.996094 127.515625 112.097656 126.109375 Z M 117.835938 119.976562 C 116.628906 118.964844 115.613281 117.765625 114.605469 116.558594 C 114.53125 116.65625 114.453125 116.75 114.375 116.847656 C 113.355469 118.078125 112.113281 119.382812 110.683594 120.34375 C 111.507812 121.902344 113.152344 122.992188 114.027344 124.5625 C 115.457031 123.222656 116.6875 121.621094 117.835938 119.976562 Z M 120.628906 115.84375 C 121.007812 115.296875 121.394531 114.726562 121.800781 114.144531 C 120.722656 113.085938 119.832031 111.871094 118.960938 110.640625 C 117.761719 112.382812 116.550781 114.113281 115.246094 115.769531 C 116.238281 116.957031 117.234375 118.136719 118.40625 119.152344 C 119.167969 118.03125 119.898438 116.90625 120.628906 115.84375 Z M 125.09375 109.578125 C 124.550781 108.074219 123.839844 106.492188 122.628906 105.441406 C 121.570312 106.855469 120.566406 108.304688 119.566406 109.769531 C 120.4375 111 121.316406 112.226562 122.382812 113.304688 C 123.226562 112.085938 124.128906 110.808594 125.09375 109.578125 Z M 129.332031 104.960938 C 128.625 103.359375 127.769531 101.847656 126.984375 100.285156 C 125.628906 101.65625 124.394531 103.113281 123.226562 104.636719 C 124.445312 105.675781 125.222656 107.167969 125.808594 108.671875 C 126.902344 107.335938 128.066406 106.070312 129.332031 104.960938 Z M 135.5 101.488281 C 134.757812 99.722656 134.015625 97.960938 133.140625 96.25 C 131.152344 96.882812 129.339844 98.054688 127.742188 99.550781 C 127.742188 99.554688 127.742188 99.554688 127.742188 99.554688 C 128.519531 101.140625 129.394531 102.6875 130.121094 104.304688 C 131.753906 103 133.535156 102 135.5 101.488281 Z M 140.910156 101.269531 C 140.570312 99.554688 140.195312 97.839844 139.488281 96.242188 C 139.117188 96.121094 138.730469 96.007812 138.316406 95.933594 C 136.863281 95.652344 135.460938 95.699219 134.125 95.984375 C 134.996094 97.714844 135.742188 99.492188 136.476562 101.273438 C 136.492188 101.273438 136.5 101.273438 136.515625 101.269531 C 137.972656 101.03125 139.464844 101.035156 140.910156 101.269531 Z M 145.882812 103.160156 C 145.59375 102.253906 145.34375 101.328125 145.28125 100.378906 C 143.914062 98.972656 142.542969 97.625 140.757812 96.746094 C 141.316406 98.273438 141.652344 99.875 141.96875 101.472656 C 143.351562 101.8125 144.664062 102.378906 145.882812 103.160156 Z M 153.039062 109.640625 C 152.832031 108.253906 152.335938 106.914062 151.847656 105.582031 C 150.859375 105.058594 149.917969 104.484375 149.039062 103.847656 C 148.089844 103.171875 147.265625 102.402344 146.476562 101.609375 C 146.675781 102.480469 146.988281 103.335938 147.292969 104.183594 C 148.804688 105.441406 150.050781 106.894531 151.453125 108.296875 C 151.960938 108.789062 152.488281 109.234375 153.039062 109.640625 Z M 158.734375 112.570312 C 158.996094 112.664062 159.261719 112.757812 159.523438 112.851562 C 158.902344 111.230469 158.386719 109.578125 157.664062 107.992188 C 156.128906 107.503906 154.59375 106.921875 153.132812 106.226562 C 153.613281 107.582031 154.03125 108.949219 154.109375 110.375 C 155.546875 111.277344 157.109375 111.964844 158.734375 112.570312 Z M 164.613281 80.4375 C 164.488281 77.988281 164.535156 75.539062 164.730469 73.117188 C 163.449219 72.75 162.191406 72.253906 160.878906 72.027344 C 160.777344 74.539062 160.867188 77.082031 161.132812 79.582031 C 162.277344 79.921875 163.453125 80.136719 164.613281 80.4375 Z M 165.789062 89.046875 C 165.226562 86.566406 164.863281 84.039062 164.679688 81.492188 C 163.546875 81.175781 162.394531 80.964844 161.265625 80.652344 C 161.597656 83.253906 162.125 85.785156 162.84375 88.15625 C 162.890625 88.332031 162.949219 88.5 163.011719 88.667969 C 163.949219 88.644531 164.886719 88.785156 165.789062 89.046875 Z M 164.914062 71.226562 C 165.160156 69.085938 165.515625 66.921875 165.957031 64.753906 C 164.648438 64.296875 163.261719 64.15625 161.890625 63.949219 C 161.394531 66.21875 161.066406 68.601562 160.925781 71.03125 C 162.261719 71.265625 163.523438 71.722656 164.824219 72.105469 C 164.851562 71.8125 164.878906 71.515625 164.914062 71.226562 Z M 167.359375 114.988281 C 166.753906 113.117188 165.910156 111.328125 165.328125 109.449219 C 163.792969 109.390625 162.277344 109.234375 160.777344 108.867188 C 160.164062 108.71875 159.53125 108.550781 158.90625 108.367188 C 159.574219 109.984375 160.101562 111.65625 160.757812 113.277344 C 162.890625 113.988281 165.113281 114.601562 167.359375 114.988281 Z M 166.164062 63.773438 C 166.65625 61.554688 167.257812 59.335938 167.960938 57.148438 C 166.746094 56.839844 165.515625 56.539062 164.308594 56.183594 C 163.625 57.9375 163.03125 59.710938 162.511719 61.480469 C 162.371094 61.96875 162.238281 62.46875 162.109375 62.972656 C 163.476562 63.179688 164.863281 63.320312 166.164062 63.773438 Z M 168.285156 56.203125 C 168.867188 54.476562 169.523438 52.789062 170.25 51.125 C 169.152344 50.8125 168.042969 50.53125 166.964844 50.136719 C 166.128906 51.8125 165.367188 53.519531 164.675781 55.25 C 165.863281 55.59375 167.078125 55.894531 168.285156 56.203125 Z M 169.765625 100.046875 C 169.90625 100.1875 170.058594 100.320312 170.214844 100.453125 C 168.355469 97.261719 166.988281 93.785156 166.066406 90.179688 C 165.179688 89.886719 164.269531 89.695312 163.335938 89.671875 C 164.707031 93.570312 166.730469 97.15625 169.765625 100.046875 Z M 174.078125 43.867188 C 172.933594 43.71875 171.398438 43.679688 170.628906 43.667969 C 169.476562 45.464844 168.410156 47.328125 167.421875 49.238281 C 168.488281 49.613281 169.582031 49.886719 170.667969 50.199219 C 171.667969 48.015625 172.808594 45.894531 174.078125 43.867188 Z M 174.992188 115.273438 C 175.121094 115.257812 175.246094 115.238281 175.371094 115.21875 C 174.792969 113.183594 174.125 111.183594 173.082031 109.332031 C 170.847656 109.355469 168.605469 109.496094 166.386719 109.472656 C 167.011719 111.398438 167.886719 113.222656 168.460938 115.164062 C 170.644531 115.472656 172.847656 115.550781 174.992188 115.273438 Z M 178.21875 38.207031 C 177.160156 37.949219 176.089844 37.800781 175.027344 37.589844 C 173.707031 39.207031 172.457031 40.898438 171.277344 42.667969 C 172.554688 42.675781 173.539062 42.746094 174.65625 42.960938 C 175.75 41.296875 176.933594 39.707031 178.21875 38.207031 Z M 176.359375 115.0625 C 177.628906 114.84375 178.886719 114.554688 180.144531 114.292969 C 179.179688 112.5625 178.074219 110.949219 176.746094 109.472656 C 176.488281 109.449219 176.222656 109.425781 175.964844 109.410156 C 175.386719 109.402344 174.800781 109.421875 174.222656 109.34375 C 175.175781 111.15625 175.808594 113.09375 176.359375 115.0625 Z M 183.3125 33.203125 C 182.691406 33 182.074219 32.8125 181.433594 32.671875 C 179.3125 33.800781 177.234375 35.128906 175.765625 36.714844 C 176.835938 36.914062 177.90625 37.085938 178.957031 37.371094 C 180.304688 35.875 181.753906 34.484375 183.3125 33.203125 Z M 184.5 113.667969 C 184.773438 113.660156 185.050781 113.644531 185.320312 113.628906 C 183.011719 112.855469 180.808594 111.734375 178.769531 110.234375 C 178.714844 110.191406 178.652344 110.15625 178.582031 110.113281 C 179.558594 111.359375 180.414062 112.691406 181.175781 114.097656 C 182.28125 113.886719 183.386719 113.722656 184.5 113.667969 Z M 188.894531 29.410156 C 188.914062 29.398438 188.933594 29.386719 188.957031 29.375 C 188.917969 29.355469 188.894531 29.328125 188.878906 29.304688 C 187.84375 29.65625 186.816406 30.050781 185.832031 30.519531 C 184.882812 30.960938 183.835938 31.449219 182.78125 31.984375 C 183.203125 32.101562 183.628906 32.242188 184.058594 32.394531 C 184.117188 32.414062 184.167969 32.453125 184.214844 32.488281 C 185.6875 31.359375 187.238281 30.316406 188.894531 29.410156 Z M 200.980469 24.957031 C 200.542969 24.910156 200.09375 24.867188 199.652344 24.863281 C 196.589844 24.796875 193.503906 25.171875 190.539062 25.984375 C 185.050781 27.488281 179.652344 29.957031 175.308594 33.730469 C 166.964844 41 161.539062 51.699219 159.304688 62.460938 C 156.882812 74.121094 157.109375 86.890625 163.765625 97.210938 C 165.328125 99.617188 167.109375 101.957031 169.320312 103.828125 C 170.847656 105.121094 173.179688 107.488281 175.363281 107.246094 C 174.097656 105.964844 172.960938 104.59375 171.933594 103.144531 C 169.804688 101.300781 167.523438 99.554688 165.992188 97.21875 C 163.601562 93.59375 161.9375 89.636719 161.144531 85.351562 C 160.308594 80.816406 159.851562 76.164062 160.011719 71.550781 C 159.976562 71.421875 159.980469 71.28125 160.027344 71.171875 C 160.144531 68.550781 160.460938 65.949219 161.023438 63.390625 C 161.035156 63.34375 161.046875 63.296875 161.0625 63.25 C 161.382812 61.820312 161.78125 60.402344 162.269531 59.007812 C 163.765625 54.757812 165.535156 50.597656 167.769531 46.6875 C 169.859375 43.039062 172.183594 38.472656 175.417969 35.6875 C 180.941406 30.945312 187.59375 28.558594 194.472656 26.832031 C 196.59375 26.035156 198.78125 25.394531 200.980469 24.957031 Z M 206.414062 110.761719 C 234.65625 99.472656 241.472656 59.839844 226.527344 35.734375 C 222.382812 29.523438 216.03125 26.578125 209.183594 26.195312 C 209.132812 26.203125 209.074219 26.207031 209.023438 26.207031 C 208.664062 26.203125 208.304688 26.183594 207.953125 26.148438 C 205.027344 26.125 202.027344 26.542969 199.09375 27.371094 C 188.746094 30.277344 180.589844 36.871094 175.152344 46.128906 C 166.730469 60.460938 162.957031 80.398438 170.199219 96.011719 C 172.238281 100.410156 175.109375 104.699219 178.886719 107.828125 C 178.957031 107.875 179.015625 107.921875 179.074219 107.984375 C 179.28125 108.15625 179.5 108.328125 179.730469 108.496094 C 181.804688 110.019531 183.664062 111.015625 186.238281 111.671875 C 186.484375 111.734375 186.660156 111.859375 186.769531 112.023438 C 193.148438 113.851562 200.292969 113.199219 206.414062 110.761719 Z M 228.261719 34.730469 C 242.800781 58.195312 237.621094 95.316406 212.644531 109.917969 C 207.03125 113.191406 200.292969 115.15625 193.722656 115.042969 C 193.644531 115.078125 193.554688 115.101562 193.460938 115.109375 C 189.800781 115.582031 186.015625 115.242188 182.378906 115.921875 C 179.582031 116.453125 176.667969 117.386719 173.796875 117.359375 C 168.769531 117.300781 163.882812 116.589844 159.15625 114.847656 C 154.558594 113.148438 151.527344 111.0625 148.113281 107.601562 C 144.605469 104.046875 139.410156 101.546875 134.546875 104.023438 C 127.140625 107.789062 123.082031 116.175781 118.265625 122.582031 C 116.039062 125.550781 113.605469 128.382812 109.765625 129.011719 C 105.125 129.773438 101.375 125.589844 96.839844 125.445312 C 96.453125 125.433594 96.175781 125.238281 96.023438 124.976562 C 95.964844 124.910156 95.910156 124.832031 95.863281 124.730469 C 94.808594 122.347656 93.707031 119.921875 93.105469 117.375 C 92.984375 116.871094 93.230469 116.484375 93.578125 116.285156 C 93.734375 116.171875 93.933594 116.101562 94.171875 116.109375 C 96.003906 116.171875 97.699219 116.546875 99.367188 117.335938 C 101.730469 118.464844 104.652344 120.40625 107.40625 119.617188 C 111.683594 118.371094 114.242188 113.855469 116.652344 110.40625 C 120.371094 105.078125 124.226562 98.339844 130.230469 95.292969 C 137.050781 91.820312 143.328125 94.925781 148.121094 100.210938 C 151.6875 104.148438 158.175781 106.894531 163.476562 107.261719 C 165.839844 107.421875 168.199219 107.363281 170.558594 107.328125 C 166.902344 104.605469 163.734375 101.285156 161.476562 97.273438 C 155.386719 86.453125 154.675781 73.902344 157.378906 61.9375 C 159.960938 50.484375 165.546875 39.144531 174.75 31.617188 C 179.109375 28.058594 184.542969 25.382812 190.007812 24.050781 C 193.035156 23.316406 196.515625 22.535156 199.652344 22.859375 C 202.800781 23.191406 205.839844 24.175781 209.023438 24.207031 C 209.195312 24.207031 209.339844 24.25 209.464844 24.316406 C 216.78125 24.722656 223.636719 27.800781 228.261719 34.730469 " fill-opacity="1" fill-rule="nonzero"/></g><path fill="#000000" d="M 216.882812 57.078125 C 220.34375 54.582031 222.984375 49.957031 222.34375 45.589844 C 221.371094 41.222656 217.886719 38.011719 213.378906 40.375 C 209.597656 42.34375 207.308594 46.226562 207.144531 50.5 C 207.03125 53.417969 207.726562 56.582031 210.726562 57.847656 C 212.820312 58.734375 215.046875 58.40625 216.882812 57.078125 Z M 224.292969 45.308594 C 225 51.09375 221.410156 57.480469 216.046875 59.773438 C 210.34375 62.210938 204.898438 57.09375 205.117188 51.34375 C 205.320312 45.824219 208.015625 39.816406 213.714844 38.085938 C 219.085938 36.449219 222.972656 39.710938 224.203125 44.832031 C 224.230469 44.898438 224.25 44.972656 224.265625 45.058594 C 224.285156 45.148438 224.292969 45.230469 224.292969 45.308594 " fill-opacity="1" fill-rule="nonzero"/><path fill="#000000" d="M 217.785156 93.285156 C 218.65625 89.558594 217.25 86.234375 213.363281 85.164062 C 210.546875 84.398438 206.828125 84.503906 204.523438 86.566406 C 201.101562 89.621094 202.050781 95.3125 204.605469 98.683594 C 209.554688 105.222656 215.902344 98.863281 217.785156 93.285156 Z M 213.894531 83.238281 C 218.707031 84.824219 220.792969 88.703125 219.761719 93.550781 C 219.75 93.640625 219.738281 93.726562 219.707031 93.8125 C 219.6875 93.898438 219.660156 93.972656 219.625 94.046875 C 217.882812 98.882812 211.738281 106.820312 205.898438 102.667969 C 201.246094 99.363281 198.269531 91.546875 201.875 86.46875 C 204.398438 82.914062 209.941406 81.9375 213.894531 83.238281 " fill-opacity="1" fill-rule="nonzero"/><path fill="#000000" d="M 216.609375 32.25 C 217.183594 32.703125 217.472656 32.984375 217.425781 33.046875 C 217.375 33.101562 217.003906 32.953125 216.375 32.617188 C 215.761719 32.269531 214.84375 31.820312 213.691406 31.320312 C 213.101562 31.101562 212.484375 30.816406 211.769531 30.621094 C 211.421875 30.519531 211.0625 30.394531 210.6875 30.289062 C 210.304688 30.210938 209.914062 30.117188 209.507812 30.027344 C 207.898438 29.710938 206.097656 29.539062 204.199219 29.621094 C 200.390625 29.816406 197.054688 30.925781 194.71875 31.851562 C 192.386719 32.789062 190.964844 33.535156 190.878906 33.378906 C 190.828125 33.253906 192.070312 32.289062 194.394531 31.121094 C 196.695312 29.992188 200.136719 28.703125 204.140625 28.496094 C 206.140625 28.40625 208.050781 28.621094 209.738281 29.015625 C 210.15625 29.132812 210.5625 29.234375 210.953125 29.339844 C 211.34375 29.464844 211.71875 29.609375 212.078125 29.742188 C 212.808594 29.980469 213.433594 30.332031 214.027344 30.601562 C 215.171875 31.214844 216.058594 31.785156 216.609375 32.25 " fill-opacity="1" fill-rule="nonzero"/><path fill="#000000" d="M 207.238281 71.21875 C 207.257812 70.816406 207.246094 69.679688 206.675781 69.597656 C 206.027344 69.503906 205.363281 70.917969 205.210938 71.371094 C 205.085938 71.730469 204.925781 72.195312 205.070312 72.578125 C 205.210938 72.917969 205.667969 72.890625 205.992188 72.855469 C 206.796875 72.703125 207.199219 72.003906 207.238281 71.21875 Z M 206.726562 68.601562 C 207.886719 68.648438 208.28125 70.160156 208.234375 71.097656 C 208.175781 72.339844 207.566406 73.59375 206.242188 73.824219 C 206.210938 73.828125 206.195312 73.824219 206.164062 73.824219 C 206.148438 73.828125 206.132812 73.835938 206.109375 73.84375 C 204.445312 74.023438 203.675781 72.75 204.203125 71.234375 C 204.5625 70.191406 205.414062 68.554688 206.726562 68.601562 " fill-opacity="1" fill-rule="nonzero"/><path fill="#000000" d="M 198.949219 81.085938 C 208.933594 83.972656 214.375 66.515625 206.007812 61.722656 C 195.5 55.6875 189.707031 76.777344 198.949219 81.085938 Z M 206.003906 60.101562 C 215.957031 65.8125 210.773438 86.023438 198.535156 82.429688 C 198.488281 82.417969 198.457031 82.390625 198.421875 82.371094 C 198.398438 82.367188 198.382812 82.367188 198.367188 82.355469 C 193.199219 80.074219 192.1875 72.816406 193.433594 67.875 C 194.699219 62.84375 200.25 56.808594 206.003906 60.101562 " fill-opacity="1" fill-rule="nonzero"/><path fill="#000000" d="M 201.152344 65.730469 C 202.519531 67.136719 204.542969 64.894531 203.675781 63.425781 C 202.613281 61.960938 199.917969 64.441406 201.152344 65.730469 Z M 204.542969 62.921875 C 205.285156 64.167969 204.789062 65.75 203.691406 66.617188 C 202.671875 67.421875 201.042969 67.351562 200.277344 66.214844 C 198.644531 63.773438 202.472656 60.546875 204.398438 62.765625 C 204.449219 62.800781 204.5 62.847656 204.542969 62.921875 " fill-opacity="1" fill-rule="nonzero"/><path fill="#000000" d="M 201.175781 79.253906 C 203.003906 79.296875 203.363281 75.421875 201.867188 75.601562 C 201.003906 75.707031 200.429688 76.457031 200.304688 77.265625 C 200.175781 78.070312 200.28125 79.050781 201.175781 79.253906 Z M 202.117188 74.605469 C 204.992188 74.734375 203.964844 80.46875 201.117188 80.257812 C 201.089844 80.257812 201.070312 80.246094 201.042969 80.238281 C 201.023438 80.238281 201.003906 80.246094 200.980469 80.246094 C 199.410156 79.96875 199.050781 78.195312 199.363281 76.855469 C 199.667969 75.601562 200.777344 74.539062 202.117188 74.605469 " fill-opacity="1" fill-rule="nonzero"/><path fill="#000000" d="M 200.28125 107.476562 C 200.304688 107.550781 199.914062 107.714844 199.167969 107.96875 C 198.425781 108.25 197.316406 108.472656 195.917969 108.660156 C 195.222656 108.722656 194.445312 108.820312 193.632812 108.832031 C 193.226562 108.855469 192.808594 108.867188 192.375 108.878906 C 191.929688 108.875 191.46875 108.863281 191.003906 108.855469 C 189.144531 108.769531 187.074219 108.4375 185.035156 107.632812 C 183 106.835938 181.257812 105.621094 179.890625 104.34375 C 178.503906 103.074219 177.46875 101.738281 176.664062 100.601562 C 175.078125 98.277344 174.378906 96.703125 174.488281 96.632812 C 174.640625 96.542969 175.59375 97.980469 177.292969 100.117188 C 178.164062 101.179688 179.230469 102.40625 180.574219 103.574219 C 181.921875 104.742188 183.546875 105.839844 185.445312 106.585938 C 189.261719 108.097656 193.148438 107.929688 195.855469 107.867188 C 197.210938 107.789062 198.3125 107.679688 199.066406 107.539062 C 199.824219 107.429688 200.261719 107.394531 200.28125 107.476562 " fill-opacity="1" fill-rule="nonzero"/><path fill="#000000" d="M 197.152344 72.375 C 198.128906 72.855469 198.785156 71.652344 198.78125 70.824219 C 198.78125 70.078125 198.488281 68.851562 197.597656 68.679688 C 196.558594 68.488281 196.078125 69.570312 196.042969 70.421875 C 196.078125 71.136719 196.480469 72.042969 197.152344 72.375 Z M 197.492188 67.652344 C 198.972656 67.695312 199.871094 69.523438 199.777344 70.824219 C 199.691406 72.0625 198.855469 73.769531 197.335938 73.476562 C 195.964844 73.222656 195.113281 71.734375 195.046875 70.421875 C 195.105469 69.007812 195.949219 67.617188 197.492188 67.652344 " fill-opacity="1" fill-rule="nonzero"/><path fill="#000000" d="M 195.203125 96.273438 C 196.445312 92.859375 196.085938 87.671875 193.246094 85.09375 C 188.429688 80.710938 180.976562 86.980469 180.726562 92.378906 C 180.546875 96.21875 182.21875 100.632812 186.421875 101.515625 C 190.503906 102.371094 193.488281 99.742188 195.203125 96.273438 Z M 193.457031 82.699219 C 197.644531 85.800781 198.898438 92.164062 197.089844 96.933594 C 197.074219 96.964844 197.054688 96.996094 197.035156 97.027344 C 197.023438 97.074219 197.007812 97.121094 196.992188 97.167969 C 194.699219 101.894531 190.046875 105.027344 184.789062 103.078125 C 180.015625 101.3125 177.539062 95.144531 179.03125 90.390625 C 180.628906 85.289062 187.871094 78.5625 193.457031 82.699219 " fill-opacity="1" fill-rule="nonzero"/><path fill="#000000" d="M 190.117188 59.339844 C 198.949219 59.292969 202.6875 45.398438 194.925781 40.964844 C 189.5625 37.898438 181.878906 41.628906 181.769531 48.070312 C 181.664062 53.441406 184.226562 58.828125 190.117188 59.339844 Z M 194.132812 38.347656 C 205.675781 42.015625 201.773438 60.945312 190.40625 61.332031 C 190.320312 61.339844 190.226562 61.351562 190.117188 61.339844 C 190.015625 61.339844 189.921875 61.332031 189.832031 61.300781 C 182.796875 60.523438 179.292969 54.003906 179.828125 47.289062 C 180.375 40.484375 187.929688 36.371094 194.132812 38.347656 " fill-opacity="1" fill-rule="nonzero"/><path fill="#000000" d="M 189.417969 74.402344 C 191.824219 67.023438 181.707031 60.320312 175.585938 65.042969 C 170.964844 68.589844 170.140625 79.839844 177.945312 79.671875 C 182.347656 79.574219 187.347656 78.789062 189.417969 74.402344 Z M 172.535156 65.296875 C 179.203125 56.828125 194.921875 64.46875 191.316406 75.039062 C 191.296875 75.101562 191.269531 75.15625 191.238281 75.210938 C 191.230469 75.230469 191.222656 75.257812 191.21875 75.277344 C 189.96875 78.050781 187.574219 79.917969 184.652344 80.746094 C 182.035156 81.484375 177.851562 82.460938 175.21875 81.351562 C 169.039062 78.753906 168.714844 70.132812 172.535156 65.296875 " fill-opacity="1" fill-rule="nonzero"/><path fill="#000000" d="M 177.242188 47.878906 C 177.367188 48 176.824219 48.722656 176.164062 49.984375 C 175.820312 50.605469 175.46875 51.386719 175.125 52.261719 C 174.761719 53.132812 174.484375 54.113281 174.113281 55.203125 C 173.328125 57.347656 172.464844 59.125 172.007812 60.488281 C 171.535156 61.789062 171.421875 62.734375 171.25 62.710938 C 171.117188 62.703125 170.933594 61.804688 171.246094 60.277344 C 171.523438 58.804688 172.304688 56.875 173.050781 54.828125 C 173.40625 53.804688 173.738281 52.742188 174.171875 51.855469 C 174.59375 50.953125 175.03125 50.167969 175.484375 49.558594 C 176.375 48.339844 177.144531 47.785156 177.242188 47.878906 " fill-opacity="1" fill-rule="nonzero"/><path fill="#000000" d="M 171.089844 90.707031 C 171.382812 91.746094 171.390625 92.441406 171.246094 92.472656 C 171.089844 92.5 170.816406 91.917969 170.347656 90.988281 C 170.117188 90.511719 169.839844 89.945312 169.585938 89.265625 C 169.523438 89.089844 169.46875 88.917969 169.40625 88.738281 C 169.351562 88.539062 169.304688 88.339844 169.253906 88.140625 C 169.191406 87.925781 169.1875 87.75 169.148438 87.550781 C 169.132812 87.441406 169.117188 87.390625 169.109375 87.234375 L 169.101562 86.925781 C 168.980469 83.628906 169.378906 81.058594 169.664062 81.050781 C 170 81.050781 170.105469 83.707031 170.21875 86.84375 L 170.222656 87.140625 C 170.222656 87.171875 170.246094 87.316406 170.257812 87.394531 C 170.285156 87.585938 170.296875 87.808594 170.339844 87.957031 C 170.371094 88.125 170.40625 88.292969 170.4375 88.453125 C 170.484375 88.621094 170.53125 88.785156 170.570312 88.945312 C 170.761719 89.589844 170.949219 90.183594 171.089844 90.707031 " fill-opacity="1" fill-rule="nonzero"/><g fill="#ff6000" fill-opacity="1"><g transform="translate(74.372588, 192.495088)"><g><path d="M 60.3125 -7.609375 C 59.070312 -7.453125 57.351562 -7.535156 55.15625 -7.859375 C 52.957031 -8.179688 51.234375 -10.164062 49.984375 -13.8125 C 49.421875 -15.625 49.289062 -18.1875 49.59375 -21.5 C 49.894531 -25.164062 50.75 -32.671875 52.15625 -44.015625 C 48.050781 -35.066406 44.925781 -28.976562 42.78125 -25.75 C 40.632812 -22.519531 38.59375 -20.28125 36.65625 -19.03125 C 35.476562 -18.34375 34.207031 -17.914062 32.84375 -17.75 C 32.125 -17.65625 31.050781 -17.65625 29.625 -17.75 C 28.195312 -17.84375 26.675781 -18.804688 25.0625 -20.640625 C 23.988281 -22.210938 22.992188 -24.484375 22.078125 -27.453125 C 21.472656 -29.347656 20.890625 -31.429688 20.328125 -33.703125 C 19.835938 -35.585938 18.71875 -39.503906 16.96875 -45.453125 C 16.28125 -38.578125 15.800781 -33.6875 15.53125 -30.78125 C 14.070312 -18.851562 13.992188 -10.710938 15.296875 -6.359375 C 15.734375 -4.867188 16.125 -3.90625 16.46875 -3.46875 C 14.40625 -2.300781 12.164062 -1.566406 9.75 -1.265625 C 8.519531 -1.109375 6.800781 -1.191406 4.59375 -1.515625 C 2.394531 -1.835938 0.691406 -3.828125 -0.515625 -7.484375 C -1.035156 -9.367188 -1.15625 -12.046875 -0.875 -15.515625 C -0.601562 -18.984375 -0.210938 -22.929688 0.296875 -27.359375 C 1.222656 -33.835938 1.863281 -40.644531 2.21875 -47.78125 C 2.582031 -54.914062 2.078125 -61.226562 0.703125 -66.71875 C 5.953125 -67.0625 10.257812 -66.441406 13.625 -64.859375 L 13.890625 -64.75 C 16.847656 -62.914062 19.253906 -60.382812 21.109375 -57.15625 C 22.960938 -53.925781 24.46875 -50.4375 25.625 -46.6875 C 25.664062 -46.5625 26 -45.441406 26.625 -43.328125 C 27.257812 -41.222656 27.992188 -38.242188 28.828125 -34.390625 L 30.109375 -28.96875 C 34.515625 -34.269531 38.171875 -39.925781 41.078125 -45.9375 C 43.992188 -51.957031 46.351562 -57.628906 48.15625 -62.953125 C 49.957031 -68.273438 50.878906 -71.628906 50.921875 -73.015625 C 52.890625 -73.171875 55.066406 -73.125 57.453125 -72.875 C 59.847656 -72.625 61.789062 -72.1875 63.28125 -71.5625 C 64.769531 -70.945312 65.613281 -70.34375 65.8125 -69.75 C 67.144531 -65.257812 67.703125 -60.175781 67.484375 -54.5 C 67.265625 -48.820312 66.789062 -43.109375 66.0625 -37.359375 C 64.582031 -25.296875 64.5 -17.054688 65.8125 -12.640625 C 66.25 -11.179688 66.632812 -10.234375 66.96875 -9.796875 C 64.945312 -8.640625 62.726562 -7.910156 60.3125 -7.609375 Z M 60.3125 -7.609375 "/></g></g></g><g fill="#ff6000" fill-opacity="1"><g transform="translate(141.555678, 184.076171)"><g><path d="M 20.921875 -10.421875 C 23.046875 -10.835938 24.851562 -11.988281 26.34375 -13.875 C 27.832031 -15.757812 29.003906 -17.863281 29.859375 -20.1875 C 30.722656 -22.507812 31.296875 -24.601562 31.578125 -26.46875 C 31.867188 -28.332031 31.957031 -30.253906 31.84375 -32.234375 C 31.738281 -34.222656 31.4375 -36.066406 30.9375 -37.765625 C 30.34375 -39.546875 29.5 -41.023438 28.40625 -42.203125 C 27.3125 -43.390625 25.878906 -43.875 24.109375 -43.65625 C 21.941406 -43.21875 20.101562 -42.09375 18.59375 -40.28125 C 17.09375 -38.476562 15.882812 -36.425781 14.96875 -34.125 C 14.0625 -31.832031 13.472656 -29.753906 13.203125 -27.890625 C 12.929688 -26.035156 12.851562 -24.128906 12.96875 -22.171875 C 13.09375 -20.222656 13.398438 -18.429688 13.890625 -16.796875 L 14.359375 -15.34375 C 14.679688 -14.28125 15.40625 -13.132812 16.53125 -11.90625 C 17.65625 -10.6875 19.117188 -10.191406 20.921875 -10.421875 Z M 19.9375 -2.828125 L 18.921875 -2.703125 C 15.378906 -2.265625 12.140625 -2.769531 9.203125 -4.21875 C 6.273438 -5.675781 3.890625 -8.003906 2.046875 -11.203125 C 1.242188 -12.585938 0.582031 -14.078125 0.0625 -15.671875 C -0.582031 -17.804688 -0.953125 -20.125 -1.046875 -22.625 C -1.160156 -27.09375 -0.195312 -31.367188 1.84375 -35.453125 C 3.882812 -39.535156 6.867188 -43.007812 10.796875 -45.875 C 14.734375 -48.75 19.59375 -50.546875 25.375 -51.265625 C 30.925781 -51.960938 35.625 -50.519531 39.46875 -46.9375 C 42 -44.625 43.800781 -41.707031 44.875 -38.1875 C 46.5625 -32.738281 46.421875 -27.296875 44.453125 -21.859375 C 43.316406 -18.648438 41.625 -15.710938 39.375 -13.046875 C 37.132812 -10.378906 34.367188 -8.140625 31.078125 -6.328125 C 27.796875 -4.515625 24.082031 -3.347656 19.9375 -2.828125 Z M 19.9375 -2.828125 "/></g></g></g><g fill="#ff6000" fill-opacity="1"><g transform="translate(190.987592, 177.881708)"><g><path d="M 18.640625 -2.765625 C 17.398438 -2.609375 16.109375 -2.585938 14.765625 -2.703125 C 12.265625 -3.015625 10.15625 -3.882812 8.4375 -5.3125 C 6.726562 -6.738281 5.503906 -8.359375 4.765625 -10.171875 C 4.503906 -10.804688 4.269531 -11.4375 4.0625 -12.0625 C 3.15625 -15.070312 2.601562 -19.609375 2.40625 -25.671875 C 2.300781 -32.785156 1.597656 -38.492188 0.296875 -42.796875 C -0.285156 -44.703125 -0.8125 -46.164062 -1.28125 -47.1875 L -2.125 -47.078125 C 1.226562 -47.492188 4.265625 -47.390625 6.984375 -46.765625 C 9.703125 -46.148438 11.585938 -45.164062 12.640625 -43.8125 C 13.410156 -42.6875 14 -41.476562 14.40625 -40.1875 C 15.15625 -37.757812 15.394531 -34.117188 15.125 -29.265625 C 15.03125 -26.703125 15.035156 -24.050781 15.140625 -21.3125 C 15.242188 -18.570312 16 -14.882812 17.40625 -10.25 C 21.820312 -16.96875 24.953125 -23.179688 26.796875 -28.890625 C 28.648438 -34.597656 29.789062 -39.722656 30.21875 -44.265625 C 30.570312 -48.535156 30.453125 -51.671875 29.859375 -53.671875 L 29.703125 -54.125 C 29.859375 -53.363281 29.59375 -52.941406 28.90625 -52.859375 C 29.0625 -52.867188 29.785156 -52.753906 31.078125 -52.515625 C 32.367188 -52.285156 34.023438 -51.816406 36.046875 -51.109375 C 38.066406 -50.410156 39.84375 -49.507812 41.375 -48.40625 C 42.375 -47.644531 43.007812 -46.8125 43.28125 -45.90625 C 43.382812 -45.644531 43.445312 -45.40625 43.46875 -45.1875 C 42.90625 -35.601562 41.113281 -27.71875 38.09375 -21.53125 C 33.25 -11.582031 27.878906 -5.59375 21.984375 -3.5625 C 20.898438 -3.175781 19.785156 -2.910156 18.640625 -2.765625 Z M 18.640625 -2.765625 "/></g></g></g><g fill="#ff6000" fill-opacity="1"><g transform="translate(233.495608, 172.554899)"><g><path d="M 10.078125 -1.3125 C 8.847656 -1.15625 7.125 -1.238281 4.90625 -1.5625 C 2.6875 -1.882812 0.972656 -3.875 -0.234375 -7.53125 C -0.859375 -9.769531 -1.046875 -12.609375 -0.796875 -16.046875 C -0.554688 -19.484375 -0.191406 -23.144531 0.296875 -27.03125 C 0.898438 -31.269531 1.316406 -35.367188 1.546875 -39.328125 C 1.773438 -43.285156 1.59375 -46.28125 1 -48.3125 C 4 -48.53125 6.898438 -48.34375 9.703125 -47.75 C 12.503906 -47.15625 14.265625 -46.273438 14.984375 -45.109375 C 15.222656 -44.660156 15.425781 -44.144531 15.59375 -43.5625 C 16.101562 -41.945312 16.3125 -39.769531 16.21875 -37.03125 C 16.125 -34.300781 15.835938 -31.070312 15.359375 -27.34375 C 14.015625 -17.957031 13.976562 -11.191406 15.25 -7.046875 C 15.75 -5.390625 16.25 -4.210938 16.75 -3.515625 C 14.71875 -2.347656 12.492188 -1.613281 10.078125 -1.3125 Z M 9.96875 -55.328125 C 8.539062 -55.148438 7.019531 -55.359375 5.40625 -55.953125 C 2.789062 -57.003906 1.164062 -58.554688 0.53125 -60.609375 C 0.0703125 -62.222656 0.242188 -64.039062 1.046875 -66.0625 C 2.117188 -68.34375 3.644531 -69.882812 5.625 -70.6875 C 6.25 -70.925781 6.921875 -71.09375 7.640625 -71.1875 C 9.066406 -71.363281 10.59375 -71.160156 12.21875 -70.578125 C 14.789062 -69.609375 16.375 -68.101562 16.96875 -66.0625 C 17.445312 -64.4375 17.269531 -62.59375 16.4375 -60.53125 C 15.40625 -58.269531 13.890625 -56.710938 11.890625 -55.859375 C 11.285156 -55.597656 10.644531 -55.421875 9.96875 -55.328125 Z M 9.96875 -55.328125 "/></g></g></g><g fill="#ff6000" fill-opacity="1"><g transform="translate(248.26162, 170.704526)"><g><path d="M 23.0625 -3.171875 C 18.414062 -2.585938 14.304688 -2.992188 10.734375 -4.390625 C 7.160156 -5.785156 4.34375 -8.066406 2.28125 -11.234375 C 1.300781 -12.742188 0.539062 -14.410156 0 -16.234375 C -0.625 -18.203125 -0.972656 -20.332031 -1.046875 -22.625 C -1.140625 -25.96875 -0.660156 -29.222656 0.390625 -32.390625 C 1.441406 -35.566406 3.023438 -38.460938 5.140625 -41.078125 C 7.265625 -43.703125 9.914062 -45.898438 13.09375 -47.671875 C 16.269531 -49.441406 19.914062 -50.582031 24.03125 -51.09375 L 24.921875 -51.203125 C 28.453125 -51.648438 31.640625 -51.3125 34.484375 -50.1875 C 37.328125 -49.0625 39.476562 -47.320312 40.9375 -44.96875 C 41.457031 -44.1875 41.851562 -43.320312 42.125 -42.375 C 42.644531 -40.675781 42.765625 -38.816406 42.484375 -36.796875 C 41.859375 -33.796875 40.171875 -31.070312 37.421875 -28.625 C 34.679688 -26.175781 31.378906 -24.175781 27.515625 -22.625 C 24.171875 -21.25 20.882812 -20.359375 17.65625 -19.953125 L 14.484375 -19.65625 C 16.421875 -16.71875 18.46875 -14.804688 20.625 -13.921875 C 22.78125 -13.046875 25.28125 -12.785156 28.125 -13.140625 C 31.625 -13.671875 34.515625 -14.675781 36.796875 -16.15625 C 39.078125 -17.644531 40.820312 -19.203125 42.03125 -20.828125 C 41.863281 -20.878906 41.835938 -20.707031 41.953125 -20.3125 C 42.003906 -20.164062 42.085938 -19.757812 42.203125 -19.09375 C 42.316406 -18.425781 42.0625 -17.265625 41.4375 -15.609375 C 40.8125 -13.960938 39.78125 -12.28125 38.34375 -10.5625 C 36.914062 -8.84375 35.078125 -7.320312 32.828125 -6 C 30.578125 -4.6875 27.925781 -3.835938 24.875 -3.453125 Z M 13.28125 -25.828125 C 18.570312 -27.117188 22.648438 -28.617188 25.515625 -30.328125 C 29.660156 -32.828125 31.195312 -35.867188 30.125 -39.453125 C 29.1875 -42.640625 26.90625 -44.003906 23.28125 -43.546875 C 20.832031 -43.078125 18.921875 -41.910156 17.546875 -40.046875 C 16.171875 -38.179688 15.175781 -36.109375 14.5625 -33.828125 C 13.945312 -31.546875 13.519531 -28.878906 13.28125 -25.828125 Z M 13.28125 -25.828125 "/></g></g></g><g fill="#ff6000" fill-opacity="1"><g transform="translate(59.454954, 281.361234)"><g><path d="M 24.265625 -3 C 18.335938 -2.25 13.25 -2.644531 9 -4.1875 C 5.28125 -5.519531 2.488281 -7.375 0.625 -9.75 C -0.132812 -10.8125 -0.695312 -11.90625 -1.0625 -13.03125 C -1.507812 -14.332031 -1.582031 -15.679688 -1.28125 -17.078125 C -0.925781 -18.972656 -0.0703125 -20.441406 1.28125 -21.484375 C 3.28125 -23.054688 5.75 -24.03125 8.6875 -24.40625 C 9.3125 -24.476562 9.9375 -24.507812 10.5625 -24.5 C 11.195312 -24.488281 11.445312 -24.660156 11.3125 -25.015625 C 11.476562 -23.898438 11.71875 -22.847656 12.03125 -21.859375 C 12.46875 -20.429688 13.210938 -18.898438 14.265625 -17.265625 C 15.316406 -15.640625 17.347656 -14.472656 20.359375 -13.765625 C 21.515625 -13.640625 22.5625 -13.632812 23.5 -13.75 C 24.757812 -13.90625 26.054688 -14.414062 27.390625 -15.28125 C 28.722656 -16.144531 29.617188 -17.296875 30.078125 -18.734375 C 30.535156 -19.890625 30.570312 -21.117188 30.1875 -22.421875 C 29.78125 -23.597656 28.800781 -25.09375 27.25 -26.90625 C 25.707031 -28.726562 21.617188 -30.875 14.984375 -33.34375 C 5.546875 -36.832031 -0.0546875 -41.523438 -1.828125 -47.421875 C -2.296875 -48.847656 -2.515625 -50.335938 -2.484375 -51.890625 C -2.421875 -55.421875 -0.582031 -58.863281 3.03125 -62.21875 C 6.65625 -65.582031 12.796875 -68.125 21.453125 -69.84375 L 23.390625 -70.140625 C 26.867188 -70.578125 30.375 -70.488281 33.90625 -69.875 C 37.4375 -69.257812 40.410156 -68.019531 42.828125 -66.15625 C 44.296875 -65.007812 45.269531 -63.640625 45.75 -62.046875 C 46.039062 -61.203125 46.171875 -60.304688 46.140625 -59.359375 C 46.035156 -57.421875 45.410156 -55.9375 44.265625 -54.90625 C 43.117188 -53.882812 41.8125 -53.1875 40.34375 -52.8125 C 39.457031 -52.613281 38.625 -52.46875 37.84375 -52.375 C 37.226562 -52.289062 36.59375 -52.253906 35.9375 -52.265625 C 35.28125 -52.273438 35.0625 -52.078125 35.28125 -51.671875 C 32.75 -57.953125 28.675781 -60.867188 23.0625 -60.421875 L 22.265625 -60.3125 C 17.691406 -59.738281 15.28125 -57.644531 15.03125 -54.03125 C 14.976562 -53.238281 15.0625 -52.445312 15.28125 -51.65625 C 16.4375 -48.019531 20.773438 -44.664062 28.296875 -41.59375 C 33.710938 -39.394531 38.128906 -36.765625 41.546875 -33.703125 C 44.554688 -31.066406 46.507812 -28.203125 47.40625 -25.109375 C 47.539062 -24.742188 47.832031 -23.597656 48.28125 -21.671875 C 48.726562 -19.742188 47.707031 -16.910156 45.21875 -13.171875 C 41.28125 -7.640625 34.296875 -4.25 24.265625 -3 Z M 24.265625 -3 "/></g></g></g><g fill="#ff6000" fill-opacity="1"><g transform="translate(104.983467, 275.655917)"><g><path d="M 23.0625 -3.171875 C 18.414062 -2.585938 14.304688 -2.992188 10.734375 -4.390625 C 7.160156 -5.785156 4.34375 -8.066406 2.28125 -11.234375 C 1.300781 -12.742188 0.539062 -14.410156 0 -16.234375 C -0.625 -18.203125 -0.972656 -20.332031 -1.046875 -22.625 C -1.140625 -25.96875 -0.660156 -29.222656 0.390625 -32.390625 C 1.441406 -35.566406 3.023438 -38.460938 5.140625 -41.078125 C 7.265625 -43.703125 9.914062 -45.898438 13.09375 -47.671875 C 16.269531 -49.441406 19.914062 -50.582031 24.03125 -51.09375 L 24.921875 -51.203125 C 28.453125 -51.648438 31.640625 -51.3125 34.484375 -50.1875 C 37.328125 -49.0625 39.476562 -47.320312 40.9375 -44.96875 C 41.457031 -44.1875 41.851562 -43.320312 42.125 -42.375 C 42.644531 -40.675781 42.765625 -38.816406 42.484375 -36.796875 C 41.859375 -33.796875 40.171875 -31.070312 37.421875 -28.625 C 34.679688 -26.175781 31.378906 -24.175781 27.515625 -22.625 C 24.171875 -21.25 20.882812 -20.359375 17.65625 -19.953125 L 14.484375 -19.65625 C 16.421875 -16.71875 18.46875 -14.804688 20.625 -13.921875 C 22.78125 -13.046875 25.28125 -12.785156 28.125 -13.140625 C 31.625 -13.671875 34.515625 -14.675781 36.796875 -16.15625 C 39.078125 -17.644531 40.820312 -19.203125 42.03125 -20.828125 C 41.863281 -20.878906 41.835938 -20.707031 41.953125 -20.3125 C 42.003906 -20.164062 42.085938 -19.757812 42.203125 -19.09375 C 42.316406 -18.425781 42.0625 -17.265625 41.4375 -15.609375 C 40.8125 -13.960938 39.78125 -12.28125 38.34375 -10.5625 C 36.914062 -8.84375 35.078125 -7.320312 32.828125 -6 C 30.578125 -4.6875 27.925781 -3.835938 24.875 -3.453125 Z M 13.28125 -25.828125 C 18.570312 -27.117188 22.648438 -28.617188 25.515625 -30.328125 C 29.660156 -32.828125 31.195312 -35.867188 30.125 -39.453125 C 29.1875 -42.640625 26.90625 -44.003906 23.28125 -43.546875 C 20.832031 -43.078125 18.921875 -41.910156 17.546875 -40.046875 C 16.171875 -38.179688 15.175781 -36.109375 14.5625 -33.828125 C 13.945312 -31.546875 13.519531 -28.878906 13.28125 -25.828125 Z M 13.28125 -25.828125 "/></g></g></g><g fill="#ff6000" fill-opacity="1"><g transform="translate(149.536131, 270.072888)"><g><path d="M 44.140625 -5.53125 C 42.898438 -5.375 41.191406 -5.457031 39.015625 -5.78125 C 36.835938 -6.101562 35.140625 -8.109375 33.921875 -11.796875 C 33.554688 -13.003906 33.257812 -16.238281 33.03125 -21.5 C 30.050781 -14.363281 27.484375 -9.515625 25.328125 -6.953125 C 22.984375 -4.296875 20.257812 -2.773438 17.15625 -2.390625 C 13.84375 -1.972656 10.847656 -2.523438 8.171875 -4.046875 C 5.503906 -5.566406 3.367188 -7.925781 1.765625 -11.125 C 1.148438 -12.332031 0.644531 -13.609375 0.25 -14.953125 C -0.476562 -17.285156 -0.910156 -19.84375 -1.046875 -22.625 C -1.117188 -27.070312 -0.269531 -31.316406 1.5 -35.359375 C 3.269531 -39.410156 5.8125 -42.835938 9.125 -45.640625 C 12.4375 -48.453125 16.351562 -50.140625 20.875 -50.703125 C 23.539062 -51.035156 25.894531 -50.898438 27.9375 -50.296875 C 29.988281 -49.691406 32.488281 -47.546875 35.4375 -43.859375 C 35.4375 -48.597656 35.304688 -51.503906 35.046875 -52.578125 C 38.085938 -52.796875 41.007812 -52.609375 43.8125 -52.015625 C 46.613281 -51.429688 48.359375 -50.550781 49.046875 -49.375 C 49.285156 -48.925781 49.488281 -48.410156 49.65625 -47.828125 C 50.175781 -46.179688 50.394531 -44 50.3125 -41.28125 C 50.226562 -38.5625 49.9375 -35.320312 49.4375 -31.5625 C 48.789062 -26.9375 48.46875 -22.46875 48.46875 -18.15625 C 48.457031 -15.695312 48.753906 -13.453125 49.359375 -11.421875 C 49.890625 -9.703125 50.398438 -8.492188 50.890625 -7.796875 C 48.804688 -6.585938 46.554688 -5.832031 44.140625 -5.53125 Z M 21.8125 -13.90625 C 23.632812 -14.132812 25.320312 -15.382812 26.875 -17.65625 C 28.425781 -19.9375 29.8125 -22.691406 31.03125 -25.921875 C 32.257812 -29.160156 33.242188 -32.570312 33.984375 -36.15625 C 34.160156 -37.53125 34.109375 -38.71875 33.828125 -39.71875 C 33.535156 -40.789062 32.757812 -41.828125 31.5 -42.828125 C 30.238281 -43.835938 28.101562 -44.148438 25.09375 -43.765625 C 22.375 -43.335938 20.144531 -42.164062 18.40625 -40.25 C 16.675781 -38.34375 15.382812 -36.132812 14.53125 -33.625 C 13.070312 -29.132812 12.96875 -24.816406 14.21875 -20.671875 C 14.226562 -20.578125 14.394531 -20.015625 14.71875 -18.984375 C 15.050781 -17.953125 15.859375 -16.789062 17.140625 -15.5 C 18.429688 -14.207031 19.988281 -13.675781 21.8125 -13.90625 Z M 21.8125 -13.90625 "/></g></g></g><g fill="#ff6000" fill-opacity="1"><g transform="translate(202.499692, 263.435863)"><g><path d="M 10.078125 -1.3125 C 8.847656 -1.15625 7.125 -1.238281 4.90625 -1.5625 C 2.6875 -1.882812 0.972656 -3.875 -0.234375 -7.53125 C -0.859375 -9.769531 -1.046875 -12.609375 -0.796875 -16.046875 C -0.554688 -19.484375 -0.191406 -23.144531 0.296875 -27.03125 C 0.898438 -31.269531 1.316406 -35.367188 1.546875 -39.328125 C 1.773438 -43.285156 1.59375 -46.28125 1 -48.3125 C 4.03125 -48.53125 6.957031 -48.296875 9.78125 -47.609375 C 12.613281 -46.929688 14.828125 -45.367188 16.421875 -42.921875 C 18.796875 -48.035156 21.84375 -50.828125 25.5625 -51.296875 L 26.265625 -51.375 C 28.835938 -51.695312 31.078125 -51.335938 32.984375 -50.296875 C 34.890625 -49.265625 36.289062 -47.578125 37.1875 -45.234375 L 37.1875 -45.140625 C 37.738281 -43.265625 37.660156 -41.457031 36.953125 -39.71875 C 36.253906 -37.976562 35.234375 -36.425781 33.890625 -35.0625 C 32.546875 -33.695312 31.300781 -32.691406 30.15625 -32.046875 C 29.5625 -31.742188 29.15625 -31.582031 28.9375 -31.5625 C 29.300781 -31.601562 29.613281 -31.375 29.875 -30.875 L 29.640625 -31.546875 C 29.203125 -33.097656 28.421875 -34.578125 27.296875 -35.984375 C 25.617188 -38.035156 23.632812 -38.921875 21.34375 -38.640625 C 19.050781 -38.160156 17.375 -36.300781 16.3125 -33.0625 C 15.257812 -29.832031 14.644531 -26.160156 14.46875 -22.046875 C 14.289062 -17.941406 14.457031 -14.097656 14.96875 -10.515625 C 15.226562 -8.628906 15.570312 -7.019531 16 -5.6875 C 16.382812 -4.382812 16.648438 -3.660156 16.796875 -3.515625 C 14.734375 -2.347656 12.492188 -1.613281 10.078125 -1.3125 Z M 10.078125 -1.3125 "/></g></g></g><g fill="#ff6000" fill-opacity="1"><g transform="translate(238.966741, 258.866066)"><g><path d="M 26.421875 -3.59375 C 22.078125 -3.050781 17.898438 -3.457031 13.890625 -4.8125 C 9.890625 -6.164062 6.382812 -8.398438 3.375 -11.515625 C 0.738281 -14.390625 -1.15625 -17.707031 -2.3125 -21.46875 C -3.457031 -25.039062 -3.726562 -28.59375 -3.125 -32.125 C -2.65625 -35.175781 -1.550781 -37.976562 0.1875 -40.53125 C 1.925781 -43.09375 4.273438 -45.234375 7.234375 -46.953125 C 10.191406 -48.679688 13.75 -49.804688 17.90625 -50.328125 L 18.46875 -50.40625 C 21.5625 -50.789062 24.664062 -50.414062 27.78125 -49.28125 C 30.894531 -48.144531 33.546875 -46.410156 35.734375 -44.078125 C 37.117188 -42.554688 38.097656 -40.898438 38.671875 -39.109375 C 38.972656 -38.140625 39.140625 -37.15625 39.171875 -36.15625 C 39.171875 -34.769531 38.648438 -33.609375 37.609375 -32.671875 C 36.578125 -31.742188 35.351562 -31.015625 33.9375 -30.484375 C 32.519531 -29.992188 31.269531 -29.679688 30.1875 -29.546875 C 29.195312 -29.421875 28.832031 -29.203125 29.09375 -28.890625 C 28.820312 -29.796875 28.578125 -30.597656 28.359375 -31.296875 C 28.222656 -31.878906 28.050781 -32.488281 27.84375 -33.125 C 27.664062 -33.769531 27.410156 -34.597656 27.078125 -35.609375 C 26.753906 -36.617188 26.265625 -37.734375 25.609375 -38.953125 C 24.953125 -40.179688 24.082031 -41.210938 23 -42.046875 C 21.925781 -42.890625 20.613281 -43.210938 19.0625 -43.015625 C 15.15625 -42.304688 12.640625 -39.492188 11.515625 -34.578125 C 10.796875 -31.078125 10.953125 -27.585938 11.984375 -24.109375 C 12.921875 -21.109375 14.765625 -18.394531 17.515625 -15.96875 C 20.265625 -13.539062 24.113281 -12.640625 29.0625 -13.265625 C 33.019531 -13.847656 35.875 -14.863281 37.625 -16.3125 C 39.382812 -17.757812 40.65625 -19.226562 41.4375 -20.71875 C 41.601562 -20.675781 41.820312 -20.210938 42.09375 -19.328125 C 42.289062 -18.765625 42.378906 -17.671875 42.359375 -16.046875 C 42.335938 -14.421875 41.207031 -12.25 38.96875 -9.53125 C 36.726562 -6.820312 33.144531 -4.9375 28.21875 -3.875 Z M 26.421875 -3.59375 "/></g></g></g><g fill="#ff6000" fill-opacity="1"><g transform="translate(279.244262, 253.818768)"><g><path d="M 41.203125 -5.15625 C 40.003906 -5.007812 38.304688 -5.097656 36.109375 -5.421875 C 33.910156 -5.742188 32.203125 -7.75 30.984375 -11.4375 C 30.316406 -13.769531 30.015625 -16.269531 30.078125 -18.9375 C 30.140625 -21.613281 30.34375 -24.523438 30.6875 -27.671875 C 31.03125 -30.828125 31.273438 -34.320312 31.421875 -38.15625 C 31.429688 -38.539062 31.390625 -38.882812 31.296875 -39.1875 C 30.960938 -40.28125 30.253906 -40.757812 29.171875 -40.625 C 28.671875 -40.5625 27.894531 -40.128906 26.84375 -39.328125 C 25.800781 -38.535156 24.332031 -36.789062 22.4375 -34.09375 C 20.539062 -31.40625 18.816406 -28.28125 17.265625 -24.71875 C 15.710938 -21.15625 14.710938 -17.519531 14.265625 -13.8125 C 14.296875 -11 14.617188 -8.546875 15.234375 -6.453125 C 15.679688 -4.929688 16.09375 -3.9375 16.46875 -3.46875 C 14.40625 -2.300781 12.164062 -1.566406 9.75 -1.265625 C 8.519531 -1.109375 6.800781 -1.191406 4.59375 -1.515625 C 2.394531 -1.835938 0.691406 -3.828125 -0.515625 -7.484375 C -1.035156 -9.367188 -1.175781 -12.070312 -0.9375 -15.59375 C -0.695312 -19.125 -0.300781 -23.179688 0.25 -27.765625 C 1.125 -34.347656 1.71875 -41.265625 2.03125 -48.515625 C 2.351562 -55.773438 1.835938 -62.15625 0.484375 -67.65625 C 2.285156 -67.8125 4.363281 -67.789062 6.71875 -67.59375 C 9.082031 -67.40625 11 -67.023438 12.46875 -66.453125 C 13.945312 -65.890625 14.816406 -65.179688 15.078125 -64.328125 C 15.859375 -61.835938 16.351562 -59.109375 16.5625 -56.140625 C 16.78125 -53.171875 16.800781 -50.050781 16.625 -46.78125 C 16.445312 -43.519531 16.039062 -38.539062 15.40625 -31.84375 C 19.445312 -37.988281 22.769531 -42.226562 25.375 -44.5625 C 27.976562 -46.90625 30.550781 -48.894531 33.09375 -50.53125 C 35.320312 -52.007812 37.488281 -52.878906 39.59375 -53.140625 C 40.03125 -53.191406 40.921875 -53.222656 42.265625 -53.234375 C 43.617188 -53.242188 44.796875 -52.546875 45.796875 -51.140625 C 46.148438 -50.523438 46.457031 -49.820312 46.71875 -49.03125 C 47.632812 -46.070312 47.550781 -40.300781 46.46875 -31.71875 C 45.289062 -21.820312 45.296875 -14.863281 46.484375 -10.84375 C 47.015625 -9.207031 47.507812 -8.066406 47.96875 -7.421875 C 45.914062 -6.222656 43.660156 -5.46875 41.203125 -5.15625 Z M 41.203125 -5.15625 "/></g></g></g></svg>